<?xml version="1.0" encoding="UTF-8" standalone="no"?>
<!-- Created with Inkscape (http://www.inkscape.org/) -->

<svg
   width="60mm"
   height="20mm"
   viewBox="0 0 60 20"
   version="1.1"
   id="svg5"
   sodipodi:docname="wood_S.svg"
   inkscape:version="1.1.1 (3bf5ae0d25, 2021-09-20)"
   inkscape:export-filename="C:\Users\marik\Documents\GitHub\manim\icons\wood_S.png"
   inkscape:export-xdpi="1200"
   inkscape:export-ydpi="1200"
   xmlns:inkscape="http://www.inkscape.org/namespaces/inkscape"
   xmlns:sodipodi="http://sodipodi.sourceforge.net/DTD/sodipodi-0.dtd"
   xmlns="http://www.w3.org/2000/svg"
   xmlns:svg="http://www.w3.org/2000/svg">
  <sodipodi:namedview
     id="namedview7"
     pagecolor="#ffffff"
     bordercolor="#666666"
     borderopacity="1.0"
     inkscape:pageshadow="2"
     inkscape:pageopacity="0.0"
     inkscape:pagecheckerboard="0"
     inkscape:document-units="mm"
     showgrid="false"
     width="600mm"
     inkscape:zoom="7.4744792"
     inkscape:cx="113.38583"
     inkscape:cy="37.193227"
     inkscape:window-width="1920"
     inkscape:window-height="1000"
     inkscape:window-x="-11"
     inkscape:window-y="-11"
     inkscape:window-maximized="1"
     inkscape:current-layer="layer1" />
  <defs
     id="defs2" />
  <g
     inkscape:label="Vrstva 1"
     inkscape:groupmode="layer"
     id="layer1">
    <path
       style="fill:none;stroke:#000000;stroke-width:0.264583px;stroke-linecap:butt;stroke-linejoin:miter;stroke-opacity:1"
       d="m 5.3825089,13.268429 c 0.1317993,-0.05794 -0.5480238,0.176279 -0.4090273,0.138751 0.1410896,-0.03809 0.265666,-0.09772 0.4090273,-0.138751 0.1970881,-0.05641 0.3993883,-0.09289 0.5978091,-0.144414 0.5704218,-0.148125 1.1352189,-0.364102 1.69589,-0.543677 1.1218815,-0.359322 2.2541529,-0.699164 3.385487,-1.027888 2.027889,-0.58923 4.086643,-1.061723 6.116531,-1.6451878 0.560173,-0.1610143 1.110496,-0.3546049 1.670719,-0.5153602 1.397244,-0.4009371 2.794296,-0.8036022 4.200396,-1.1723026 0.652455,-0.1710835 1.302801,-0.3519685 1.966477,-0.4757168 1.316869,-0.2455421 2.654217,-0.4996812 3.995882,-0.5380133 0.0955,-0.00273 0.726966,-0.024543 0.780298,0.082118 0.09709,0.1941753 -0.457948,0.5772819 -0.550613,0.6626058 -1.176177,1.0830041 -2.637372,1.8889919 -4.096566,2.5173359 -0.815766,0.351277 -1.663977,0.610026 -2.488774,0.937275 -0.977187,0.387712 -1.925646,0.843851 -2.878923,1.285569 -0.826199,0.382834 -1.66467,0.745646 -2.479334,1.152481 -2.23844,1.117853 -4.443622,2.309516 -6.657705,3.474432"
       id="path143" />
    <path
       style="fill:none;stroke:#000000;stroke-width:0.264583px;stroke-linecap:butt;stroke-linejoin:miter;stroke-opacity:1"
       d="M 3.220957,10.422622 C 3.968924,10.044534 4.7516663,9.734829 5.5335344,9.4343766 9.2912783,7.9903695 13.14926,6.816564 17.00203,5.6597891 18.516569,5.2050563 18.66368,5.1319985 20.875204,4.5073083 22.814371,3.9595504 24.77799,3.4660337 26.727441,2.952733"
       id="path145" />
    <path
       style="fill:none;stroke:#000000;stroke-width:0.264583px;stroke-linecap:butt;stroke-linejoin:miter;stroke-opacity:1"
       d="m 25.849604,5.4644054 c 0.576529,-0.2672654 1.185875,-0.475452 1.796573,-0.6512793 1.538809,-0.44304 3.134675,-0.6881889 4.703816,-0.9995717 2.596388,-0.5152321 5.197832,-1.017193 7.825004,-1.3506966 0.892691,-0.1133214 1.795161,-0.1921432 2.693289,-0.2520167 0.107159,-0.00714 0.912347,-0.1309566 1.123251,0.00849 0.08504,0.056228 -0.149762,0.2002143 -0.358685,0.3397978 -0.803222,0.5366353 -1.624994,1.0501531 -2.457309,1.5404168 -1.506726,0.8875125 -3.041164,1.715997 -4.606277,2.4946824 -2.633448,1.3102084 -5.293312,2.5538647 -7.982326,3.7462709 -1.63314,0.724196 -3.291895,1.387008 -4.902034,2.16338 -2.35159,1.133884 -3.172148,1.595233 -5.594234,2.86846"
       id="path147" />
    <path
       style="fill:none;stroke:#000000;stroke-width:0.264583px;stroke-linecap:butt;stroke-linejoin:miter;stroke-opacity:1"
       d="m 22.464117,18.136033 c 0.279437,-0.220602 0.134206,-0.13065 0.575785,-0.314313 1.826395,-0.759643 3.665986,-1.503477 5.506136,-2.228508 2.315681,-0.912392 4.657773,-1.763623 6.95661,-2.718382 2.751929,-1.142938 5.482336,-2.362437 8.142788,-3.7066281 1.365612,-0.6899741 1.936964,-1.0123067 3.341439,-1.8575616 0.64924,-0.3907319 1.906717,-1.2061369 2.428994,-1.6904943 0.07315,-0.067845 1.11579,-0.9861375 1.076055,-1.5404168 -0.04027,-0.5617986 -0.898628,-0.5637977 -1.312035,-0.6088044"
       id="path149" />
    <path
       style="fill:none;stroke:#000000;stroke-width:0.264583px;stroke-linecap:butt;stroke-linejoin:miter;stroke-opacity:1"
       d="m 35.94314,17.736771 c 0.232831,-0.150078 0.460957,-0.307716 0.698492,-0.450233 0.486685,-0.292003 1.000575,-0.536064 1.500815,-0.804188 2.346703,-1.257813 -1.213679,0.64436 2.331455,-1.240262 1.964584,-1.044389 3.924342,-2.097042 5.845945,-3.219584 2.04643,-1.195465 4.00155,-2.5405119 6.053603,-3.7292816 1.85175,-1.0727333 3.661177,-1.9836733 5.578501,-2.9250931"
       id="path151" />
    <path
       style="fill:none;stroke:#000000;stroke-width:0.264583px;stroke-linecap:butt;stroke-linejoin:miter;stroke-opacity:1"
       d="m 42.692089,18.263457 c 0.225489,-0.07457 0.455806,-0.13587 0.676468,-0.2237 0.614966,-0.244777 1.211623,-0.533418 1.821744,-0.79003 1.656985,-0.696913 3.321841,-1.377955 4.971256,-2.092588 1.536253,-0.665605 3.060271,-1.358512 4.599982,-2.016134"
       id="path153" />
    <path
       style="fill:none;stroke:#000000;stroke-width:0.264583px;stroke-linecap:butt;stroke-linejoin:miter;stroke-opacity:1"
       d="m 50.438436,18.280447 c 2.150655,-0.984772 4.318259,-1.931893 6.512972,-2.814659"
       id="path155" />
    <path
       style="fill:none;stroke:#000000;stroke-width:0.264583px;stroke-linecap:butt;stroke-linejoin:miter;stroke-opacity:1"
       d="M 2.009607,5.9712706 C 2.2550234,5.8259125 2.4924737,5.6661756 2.7458561,5.5351965 4.1759459,4.7959512 5.6820262,4.2210413 7.1853752,3.6521503 9.604042,2.7368883 9.0641238,2.9394015 11.174964,2.1881879"
       id="path157" />
  </g>
</svg>
