<?xml version="1.0" encoding="UTF-8" standalone="no"?>
<!-- Created with Inkscape (http://www.inkscape.org/) -->

<svg
   xmlns:dc="http://purl.org/dc/elements/1.1/"
   xmlns:cc="http://creativecommons.org/ns#"
   xmlns:rdf="http://www.w3.org/1999/02/22-rdf-syntax-ns#"
   xmlns:svg="http://www.w3.org/2000/svg"
   xmlns="http://www.w3.org/2000/svg"
   xmlns:sodipodi="http://sodipodi.sourceforge.net/DTD/sodipodi-0.dtd"
   xmlns:inkscape="http://www.inkscape.org/namespaces/inkscape"
   width="60mm"
   height="20mm"
   viewBox="0 0 60 20"
   version="1.1"
   id="svg5"
   inkscape:version="0.92.5 (2060ec1f9f, 2020-04-08)"
   sodipodi:docname="wood_L.svg"
   inkscape:export-filename="C:\Users\marik\Documents\GitHub\manim\icons\wood_L.png"
   inkscape:export-xdpi="1200"
   inkscape:export-ydpi="1200">
  <metadata
     id="metadata12">
    <rdf:RDF>
      <cc:Work
         rdf:about="">
        <dc:format>image/svg+xml</dc:format>
        <dc:type
           rdf:resource="http://purl.org/dc/dcmitype/StillImage" />
      </cc:Work>
    </rdf:RDF>
  </metadata>
  <sodipodi:namedview
     id="namedview7"
     pagecolor="#ffffff"
     bordercolor="#666666"
     borderopacity="1.0"
     inkscape:pageshadow="2"
     inkscape:pageopacity="0.0"
     inkscape:pagecheckerboard="0"
     inkscape:document-units="mm"
     showgrid="false"
     width="600mm"
     inkscape:zoom="7.4744792"
     inkscape:cx="67.094979"
     inkscape:cy="37.193227"
     inkscape:window-width="1920"
     inkscape:window-height="1163"
     inkscape:window-x="1280"
     inkscape:window-y="0"
     inkscape:window-maximized="1"
     inkscape:current-layer="layer1" />
  <defs
     id="defs2" />
  <g
     inkscape:label="Vrstva 1"
     inkscape:groupmode="layer"
     id="layer1">
    <path
       style="fill:none;stroke:#000000;stroke-width:0.665;stroke-linecap:butt;stroke-linejoin:miter;stroke-opacity:1;stroke-miterlimit:4;stroke-dasharray:none"
       d="M 3.2335425,2.7318644 C 3.5633077,2.6946111 3.8561338,2.5036282 4.1868907,2.4656895 4.7802971,2.3976242 5.3790368,2.3742254 5.9740252,2.3241071 6.3743598,2.2903852 6.7727647,2.2180057 7.1727898,2.1768613 7.7241777,2.1201487 8.284149,2.1230033 8.837216,2.0777536 c 0.7551857,-0.061786 1.509941,-0.093115 2.265382,-0.1472457 0.774661,-0.055508 1.539901,-0.1245037 2.31887,-0.093444 1.027294,0.040961 2.051449,0.1247651 3.077144,0.1925521 1.019875,0.067402 2.040909,0.1087029 3.061411,0.1642356 1.238017,0.067369 2.47295,0.1642641 3.71271,0.2010471 1.371859,0.040702 2.720073,-0.1243318 4.087125,-0.1698989 1.931919,-0.064396 3.872326,-0.1070057 5.805041,-0.079286 1.202541,0.017247 2.403792,0.086007 3.605733,0.1189292 0.556879,0.015253 1.11411,0.010447 1.67072,0.036811 0.475533,0.022525 0.949724,0.0674 1.425302,0.087781 2.076429,0.088987 4.155107,0.1303665 6.232946,0.161404 1.289529,0.019262 2.587138,0.073645 3.87632,0.042475 1.07881,-0.026084 2.157741,-0.079702 3.234463,-0.1500774"
       id="path83" />
    <path
       style="fill:none;stroke:#000000;stroke-width:0.66500002;stroke-linecap:butt;stroke-linejoin:miter;stroke-miterlimit:4;stroke-dasharray:none;stroke-opacity:1"
       d="m 4.7189146,5.5387049 c 1.446963,-0.295289 2.9486914,-0.1443867 4.4166016,-0.1522525 0.8293201,-0.00444 1.6572178,-0.050695 2.4872118,-0.02927 1.319437,0.03406 2.635032,0.1461935 3.955272,0.1615873 1.620513,0.018893 3.239234,-0.084581 4.860241,-0.024664 0.990639,0.036617 1.985241,0.070267 2.973641,0.147577 0.732291,0.057279 1.463647,0.1248479 2.195389,0.1878117 0.472898,0.040691 0.945959,0.07946 1.419537,0.1122845 1.357996,0.094125 2.714927,0.1886359 4.069299,0.3184023 0.498898,0.047801 0.997449,0.1003853 1.495577,0.1594968 1.377761,0.1634943 2.747869,0.3886777 4.11672,0.6133042 1.067513,0.1751773 2.137282,0.3237173 3.196239,0.5470536 0.726032,0.1531218 1.449155,0.3198239 2.175251,0.4725435 1.05436,0.2217627 2.081034,0.4368751 3.098595,0.793801 0.0085,0.00298 1.003056,0.2616189 0.924441,0.5224001 -0.0373,0.123711 -0.374208,0.1777039 -0.39184,0.1825012 -0.284964,0.07753 -0.581608,0.1029352 -0.872638,0.1530941 -0.827399,0.1426018 -0.792666,0.1431954 -1.482242,0.2364986 -4.766182,0.6448877 -9.550843,1.0269687 -14.355692,1.2326657 -2.447104,0.104761 -4.900215,0.205509 -7.338736,0.447889 -2.846957,0.282978 -5.688397,0.649437 -8.532333,0.963767"
       id="path85"
       inkscape:connector-curvature="0"
       sodipodi:nodetypes="ccscscssssssscccssssc" />
    <path
       style="fill:none;stroke:#000000;stroke-width:0.69562054;stroke-linecap:butt;stroke-linejoin:miter;stroke-miterlimit:4;stroke-dasharray:none;stroke-opacity:1"
       d="m 5.4674051,8.3424389 c 0.4898383,0.024185 3.7755727,0.030312 4.0065326,0.040349 2.1375363,0.092852 4.2607393,0.2882728 6.3727763,0.6321532 0.15515,0.025262 1.454581,0.2681517 1.443547,0.5151976 -0.0149,0.3344708 -1.927781,0.7424175 -2.189872,0.7961585 -1.808027,0.37073 -3.641703,0.587874 -5.4735549,0.841301 -1.5245042,0.210908 -3.0463194,0.436755 -4.5710294,0.64655"
       id="path87"
       inkscape:connector-curvature="0"
       sodipodi:nodetypes="cscccsc" />
    <path
       style="fill:none;stroke:#000000;stroke-width:0.665;stroke-linecap:butt;stroke-linejoin:miter;stroke-opacity:1;stroke-miterlimit:4;stroke-dasharray:none"
       d="m 6.7920798,14.537007 c 0.8235267,-0.134066 1.6581069,-0.176518 2.4856273,-0.277501 1.6774859,-0.204705 3.3424509,-0.463159 5.0278889,-0.605973 3.20593,-0.27165 6.423198,-0.347434 9.637312,-0.453063 2.664589,-0.08757 5.331549,-0.182016 7.998057,-0.161405 1.993768,0.01541 3.985308,0.122746 5.978091,0.178394 3.495916,0.09762 6.993554,0.118686 10.489975,0.192552"
       id="path89" />
    <path
       style="fill:none;stroke:#000000;stroke-width:0.665;stroke-linecap:butt;stroke-linejoin:miter;stroke-opacity:1;stroke-miterlimit:4;stroke-dasharray:none"
       d="m 42.909188,5.6399675 c 2.353344,0.1486091 4.700511,0.4406747 7.02583,0.8325049 1.457177,0.2455431 2.894645,0.531333 4.313664,0.9457705 0.237177,0.069269 1.738132,0.4478743 1.78399,0.7871984 0.04377,0.3238722 -0.372105,0.4745972 -0.585224,0.5804879 C 54.882158,9.0668 54.173635,9.1770776 53.55963,9.2899626 52.346092,9.5130714 51.1206,9.6604644 49.897262,9.8166493"
       id="path91" />
    <path
       style="fill:none;stroke:#000000;stroke-width:0.665;stroke-linecap:butt;stroke-linejoin:miter;stroke-opacity:1;stroke-miterlimit:4;stroke-dasharray:none"
       d="m 6.9714226,18.178508 c 0.2982007,-0.06709 0.4902842,-0.116095 0.8023227,-0.158573 0.7746537,-0.105454 1.5640579,-0.16866 2.3408947,-0.249185 1.523372,-0.157908 3.045929,-0.300839 4.571666,-0.433242 2.786563,-0.241817 5.574861,-0.485524 8.372474,-0.552171 2.51973,-0.06003 5.037364,-0.07527 7.557565,-0.01982 2.207334,0.04856 4.41281,0.149922 6.619949,0.203879 2.415145,0.05904 4.830815,0.08742 7.246075,0.141582 3.238804,0.07262 6.470745,0.156057 9.709679,0.178394"
       id="path93" />
  </g>
</svg>
