<?xml version="1.0" encoding="UTF-8" standalone="no"?>
<!-- Created with Inkscape (http://www.inkscape.org/) -->

<svg
   width="60mm"
   height="20mm"
   viewBox="0 0 60 20"
   version="1.1"
   id="svg5"
   inkscape:version="1.1.1 (3bf5ae0d25, 2021-09-20)"
   sodipodi:docname="wood_L.svg"
   inkscape:export-filename="C:\Users\marik\Documents\GitHub\manim\icons\wood_L.png"
   inkscape:export-xdpi="1200"
   inkscape:export-ydpi="1200"
   xmlns:inkscape="http://www.inkscape.org/namespaces/inkscape"
   xmlns:sodipodi="http://sodipodi.sourceforge.net/DTD/sodipodi-0.dtd"
   xmlns="http://www.w3.org/2000/svg"
   xmlns:svg="http://www.w3.org/2000/svg">
  <sodipodi:namedview
     id="namedview7"
     pagecolor="#ffffff"
     bordercolor="#666666"
     borderopacity="1.0"
     inkscape:pageshadow="2"
     inkscape:pageopacity="0.0"
     inkscape:pagecheckerboard="0"
     inkscape:document-units="mm"
     showgrid="false"
     width="600mm"
     inkscape:zoom="7.4744792"
     inkscape:cx="113.38583"
     inkscape:cy="37.193227"
     inkscape:window-width="1920"
     inkscape:window-height="1000"
     inkscape:window-x="-11"
     inkscape:window-y="-11"
     inkscape:window-maximized="1"
     inkscape:current-layer="layer1" />
  <defs
     id="defs2" />
  <g
     inkscape:label="Vrstva 1"
     inkscape:groupmode="layer"
     id="layer1">
    <path
       style="fill:none;stroke:#000000;stroke-width:0.264583px;stroke-linecap:butt;stroke-linejoin:miter;stroke-opacity:1"
       d="M 3.2335425,2.7318644 C 3.5633077,2.6946111 3.8561338,2.5036282 4.1868907,2.4656895 4.7802971,2.3976242 5.3790368,2.3742254 5.9740252,2.3241071 6.3743598,2.2903852 6.7727647,2.2180057 7.1727898,2.1768613 7.7241777,2.1201487 8.284149,2.1230033 8.837216,2.0777536 c 0.7551857,-0.061786 1.509941,-0.093115 2.265382,-0.1472457 0.774661,-0.055508 1.539901,-0.1245037 2.31887,-0.093444 1.027294,0.040961 2.051449,0.1247651 3.077144,0.1925521 1.019875,0.067402 2.040909,0.1087029 3.061411,0.1642356 1.238017,0.067369 2.47295,0.1642641 3.71271,0.2010471 1.371859,0.040702 2.720073,-0.1243318 4.087125,-0.1698989 1.931919,-0.064396 3.872326,-0.1070057 5.805041,-0.079286 1.202541,0.017247 2.403792,0.086007 3.605733,0.1189292 0.556879,0.015253 1.11411,0.010447 1.67072,0.036811 0.475533,0.022525 0.949724,0.0674 1.425302,0.087781 2.076429,0.088987 4.155107,0.1303665 6.232946,0.161404 1.289529,0.019262 2.587138,0.073645 3.87632,0.042475 1.07881,-0.026084 2.157741,-0.079702 3.234463,-0.1500774"
       id="path83" />
    <path
       style="fill:none;stroke:#000000;stroke-width:0.264583px;stroke-linecap:butt;stroke-linejoin:miter;stroke-opacity:1"
       d="M 4.5235516,5.7928766 C 5.9624126,5.4603461 7.4675351,5.5724451 8.9347534,5.5267015 9.7636826,5.500857 10.590111,5.4332573 11.420381,5.4332573 c 1.319877,0 2.637927,0.078146 3.958125,0.059465 1.620461,-0.022932 3.235973,-0.1681438 4.857986,-0.1500775 0.991254,0.011041 1.986393,0.019013 2.976459,0.070791 1.207577,0.063155 2.413339,0.1542537 3.621466,0.2067102 1.860934,0.080802 3.719891,0.1623764 5.575356,0.3341346 1.381521,0.1278858 2.756984,0.3176376 4.131175,0.5068652 1.071678,0.1475711 2.144924,0.2684555 3.209292,0.4643903 0.729742,0.1343351 1.456926,0.282321 2.186721,0.4162523 1.059732,0.1944804 2.091615,0.3830272 3.118048,0.7135754 0.0086,0.00276 1.009473,0.2356472 0.937614,0.4983703 -0.03409,0.1246322 -0.369498,0.1873014 -0.387,0.1925521 -0.282869,0.084858 -0.578758,0.1179097 -0.868397,0.1755621 -0.823444,0.1639059 -0.788707,0.163603 -1.475645,0.2746701 -4.747953,0.7676668 -9.521161,1.2730926 -14.319102,1.6027126 -2.443585,0.167876 -4.89328,0.331894 -7.324734,0.637121 -2.838706,0.356352 -5.669743,0.796014 -8.504621,1.183629"
       id="path85" />
    <path
       style="fill:none;stroke:#000000;stroke-width:0.264583px;stroke-linecap:butt;stroke-linejoin:miter;stroke-opacity:1"
       d="M 6.914788,8.7802658 C 6.8319337,8.7500618 6.7245314,8.7558157 6.6662252,8.6896532 6.6381738,8.6578219 6.7302863,8.6308135 6.7700553,8.6160302 7.1784548,8.4642163 8.5661197,8.5151472 8.991388,8.505596 c 1.954924,-0.043906 3.902765,0.015462 5.84909,0.2237002 0.142977,0.015298 1.342283,0.1746695 1.346644,0.4219157 0.0059,0.3347394 -1.714849,0.8640681 -1.950746,0.9344441 -1.627333,0.485489 -3.287026,0.819344 -4.9429371,1.189292 -1.3780825,0.307879 -2.7528403,0.630494 -4.1311755,0.937276"
       id="path87" />
    <path
       style="fill:none;stroke:#000000;stroke-width:0.264583px;stroke-linecap:butt;stroke-linejoin:miter;stroke-opacity:1"
       d="m 6.7920798,14.537007 c 0.8235267,-0.134066 1.6581069,-0.176518 2.4856273,-0.277501 1.6774859,-0.204705 3.3424509,-0.463159 5.0278889,-0.605973 3.20593,-0.27165 6.423198,-0.347434 9.637312,-0.453063 2.664589,-0.08757 5.331549,-0.182016 7.998057,-0.161405 1.993768,0.01541 3.985308,0.122746 5.978091,0.178394 3.495916,0.09762 6.993554,0.118686 10.489975,0.192552"
       id="path89" />
    <path
       style="fill:none;stroke:#000000;stroke-width:0.264583px;stroke-linecap:butt;stroke-linejoin:miter;stroke-opacity:1"
       d="m 42.909188,5.6399675 c 2.353344,0.1486091 4.700511,0.4406747 7.02583,0.8325049 1.457177,0.2455431 2.894645,0.531333 4.313664,0.9457705 0.237177,0.069269 1.738132,0.4478743 1.78399,0.7871984 0.04377,0.3238722 -0.372105,0.4745972 -0.585224,0.5804879 C 54.882158,9.0668 54.173635,9.1770776 53.55963,9.2899626 52.346092,9.5130714 51.1206,9.6604644 49.897262,9.8166493"
       id="path91" />
    <path
       style="fill:none;stroke:#000000;stroke-width:0.264583px;stroke-linecap:butt;stroke-linejoin:miter;stroke-opacity:1"
       d="m 6.9714226,18.178508 c 0.2982007,-0.06709 0.4902842,-0.116095 0.8023227,-0.158573 0.7746537,-0.105454 1.5640579,-0.16866 2.3408947,-0.249185 1.523372,-0.157908 3.045929,-0.300839 4.571666,-0.433242 2.786563,-0.241817 5.574861,-0.485524 8.372474,-0.552171 2.51973,-0.06003 5.037364,-0.07527 7.557565,-0.01982 2.207334,0.04856 4.41281,0.149922 6.619949,0.203879 2.415145,0.05904 4.830815,0.08742 7.246075,0.141582 3.238804,0.07262 6.470745,0.156057 9.709679,0.178394"
       id="path93" />
  </g>
</svg>
