<?xml version="1.0" encoding="UTF-8" standalone="no"?>
<!-- Created with Inkscape (http://www.inkscape.org/) -->

<svg
   xmlns:dc="http://purl.org/dc/elements/1.1/"
   xmlns:cc="http://creativecommons.org/ns#"
   xmlns:rdf="http://www.w3.org/1999/02/22-rdf-syntax-ns#"
   xmlns:svg="http://www.w3.org/2000/svg"
   xmlns="http://www.w3.org/2000/svg"
   xmlns:sodipodi="http://sodipodi.sourceforge.net/DTD/sodipodi-0.dtd"
   xmlns:inkscape="http://www.inkscape.org/namespaces/inkscape"
   width="60mm"
   height="20mm"
   viewBox="0 0 60 20"
   version="1.1"
   id="svg5"
   sodipodi:docname="wood_P.svg"
   inkscape:version="0.92.5 (2060ec1f9f, 2020-04-08)"
   inkscape:export-filename="wood_P.png"
   inkscape:export-xdpi="1200"
   inkscape:export-ydpi="1200">
  <metadata
     id="metadata4606">
    <rdf:RDF>
      <cc:Work
         rdf:about="">
        <dc:format>image/svg+xml</dc:format>
        <dc:type
           rdf:resource="http://purl.org/dc/dcmitype/StillImage" />
      </cc:Work>
    </rdf:RDF>
  </metadata>
  <sodipodi:namedview
     id="namedview7"
     pagecolor="#ffffff"
     bordercolor="#666666"
     borderopacity="1.0"
     inkscape:pageshadow="2"
     inkscape:pageopacity="0.0"
     inkscape:pagecheckerboard="0"
     inkscape:document-units="mm"
     showgrid="false"
     width="600mm"
     inkscape:zoom="7.4744792"
     inkscape:cx="67.094979"
     inkscape:cy="37.193227"
     inkscape:window-width="1920"
     inkscape:window-height="1163"
     inkscape:window-x="1280"
     inkscape:window-y="0"
     inkscape:window-maximized="1"
     inkscape:current-layer="layer1" />
  <defs
     id="defs2" />
  <g
     inkscape:label="Vrstva 1"
     inkscape:groupmode="layer"
     id="layer1">
    <path
       style="fill:none;stroke:#000000;stroke-width:0.665;stroke-linecap:butt;stroke-linejoin:miter;stroke-opacity:1;stroke-miterlimit:4;stroke-dasharray:none"
       d="M 4.3882579,1.4859391 C 4.3505016,1.5623936 4.299808,1.6337254 4.2749888,1.7153026 4.1627811,2.0841144 4.1987657,2.9419073 4.1743053,3.3491638 4.1447762,3.8408102 4.0905908,4.3291 4.0736215,4.8216211 c -0.023127,0.6712704 0.018526,1.3567441 0.053488,2.0274605 0.062508,1.1991321 0.2719358,2.3865874 0.3492465,3.5848674 0.1530919,2.372859 0.2681367,4.746866 0.047195,7.118764"
       id="path109" />
    <path
       style="fill:none;stroke:#000000;stroke-width:0.665;stroke-linecap:butt;stroke-linejoin:miter;stroke-opacity:1;stroke-miterlimit:4;stroke-dasharray:none"
       d="m 8.9221679,2.782834 c -0.2875632,2.0083494 0.1424041,3.9898926 0.6103946,5.9351357 0.1432221,0.5953154 0.3416427,1.1795542 0.4688085,1.7782753 0.209476,0.986257 0.245474,1.259881 0.320929,2.287972 0.135819,1.850571 -0.314901,3.68492 -0.5569066,5.507557"
       id="path111" />
    <path
       style="fill:none;stroke:#000000;stroke-width:0.665;stroke-linecap:butt;stroke-linejoin:miter;stroke-opacity:1;stroke-miterlimit:4;stroke-dasharray:none"
       d="m 14.887674,1.9248446 c 0.01043,0.783224 -8.47e-4,1.5721271 0.02832,2.3559316 0.05207,1.3999089 0.318305,2.7817527 0.402734,4.1795134 0.198583,3.2876124 0.27757,6.5782124 0.298905,9.8711274"
       id="path113" />
    <path
       style="fill:none;stroke:#000000;stroke-width:0.665;stroke-linecap:butt;stroke-linejoin:miter;stroke-opacity:1;stroke-miterlimit:4;stroke-dasharray:none"
       d="m 20.472469,2.1853563 c 0.129203,2.809002 0.650019,5.5875521 0.871543,8.3901747 0.202954,2.567687 0.190357,5.130489 -0.122709,7.687926"
       id="path115" />
    <path
       style="fill:none;stroke:#000000;stroke-width:0.665;stroke-linecap:butt;stroke-linejoin:miter;stroke-opacity:1;stroke-miterlimit:4;stroke-dasharray:none"
       d="m 26.629902,2.4515313 c -0.08926,0.4211367 -0.07857,0.8600122 -0.122708,1.2884001 -0.04469,0.4336963 -0.120116,0.8637548 -0.169903,1.2968952 -0.125016,1.0876036 -0.145474,2.1944276 -0.188782,3.2875439 -0.04795,1.2101914 -0.05151,2.4209845 0.110123,3.6245105 0.160796,1.197292 0.563937,2.32231 0.767711,3.508412 0.09258,0.53886 0.11122,1.08858 0.09125,1.633862"
       id="path117" />
    <path
       style="fill:none;stroke:#000000;stroke-width:0.665;stroke-linecap:butt;stroke-linejoin:miter;stroke-opacity:1;stroke-miterlimit:4;stroke-dasharray:none"
       d="m 32.368871,1.3018819 c -0.01363,0.2170931 -0.0397,0.4337618 -0.0409,0.6512792 -0.0029,0.5320287 0.09041,1.0896419 0.116417,1.6197031 0.04969,1.0129171 0.07691,2.0267806 0.154172,3.0383588 0.120865,1.5824219 0.272868,3.1601738 0.295757,4.748675 0.02766,1.919907 -0.111609,3.8436 -0.16361,5.762405"
       id="path119" />
    <path
       style="fill:none;stroke:#000000;stroke-width:0.665;stroke-linecap:butt;stroke-linejoin:miter;stroke-opacity:1;stroke-miterlimit:4;stroke-dasharray:none"
       d="m 35.581306,2.227831 c 0.12713,0.1762217 0.318292,0.4162441 0.418468,0.6257944 0.565047,1.1819856 0.74205,2.7388055 0.943909,4.0237727 0.184819,1.1765095 0.340635,2.3535357 0.383855,3.5452239 0.0832,2.293807 -0.189206,4.594845 -0.339807,6.880906"
       id="path121" />
    <path
       style="fill:none;stroke:#000000;stroke-width:0.665;stroke-linecap:butt;stroke-linejoin:miter;stroke-opacity:1;stroke-miterlimit:4;stroke-dasharray:none"
       d="m 41.320275,1.7153026 c -0.123759,0.1311997 -0.27282,0.2424823 -0.371271,0.3935992 -0.232863,0.3574267 -0.23,0.9998526 -0.251709,1.3875079 -0.04089,0.7301701 -0.01987,1.4078273 0.06922,2.1350629 0.10632,0.8679002 0.325438,1.7179025 0.453075,2.5824637 0.181941,1.2323776 0.292553,2.4573687 0.232831,3.7037967 -0.05351,1.116841 -0.173469,2.206301 -0.387003,3.301702 -0.268267,1.376175 -0.658884,2.721629 -0.783445,4.12288"
       id="path123" />
    <path
       style="fill:none;stroke:#000000;stroke-width:0.665;stroke-linecap:butt;stroke-linejoin:miter;stroke-opacity:1;stroke-miterlimit:4;stroke-dasharray:none"
       d="m 47.789197,2.0154574 c -0.08587,0.3830516 -0.08551,0.32437 -0.11956,0.7617135 -0.05026,0.6454256 -0.05924,1.2936037 -0.100684,1.9396792 -0.132054,2.0587123 -0.249817,4.1269522 -0.273733,6.1899839 -0.02371,2.044923 -0.02831,4.091101 -0.04405,6.136183"
       id="path125" />
    <path
       style="fill:none;stroke:#000000;stroke-width:0.665;stroke-linecap:butt;stroke-linejoin:miter;stroke-opacity:1;stroke-miterlimit:4;stroke-dasharray:none"
       d="m 52.955528,2.6440834 c -0.04597,0.5198628 -0.09893,1.0412208 -0.119563,1.5630699 -0.0477,1.2060796 -0.01593,2.415064 -0.03461,3.6216788 -0.02011,1.2980402 -0.06396,2.5954179 -0.08181,3.8935169 -0.02831,2.058886 -0.006,4.117224 0.02832,6.175826"
       id="path127" />
  </g>
</svg>
