<?xml version="1.0" encoding="UTF-8" standalone="no"?>
<!-- Created with Inkscape (http://www.inkscape.org/) -->

<svg
   xmlns:dc="http://purl.org/dc/elements/1.1/"
   xmlns:cc="http://creativecommons.org/ns#"
   xmlns:rdf="http://www.w3.org/1999/02/22-rdf-syntax-ns#"
   xmlns:svg="http://www.w3.org/2000/svg"
   xmlns="http://www.w3.org/2000/svg"
   xmlns:sodipodi="http://sodipodi.sourceforge.net/DTD/sodipodi-0.dtd"
   xmlns:inkscape="http://www.inkscape.org/namespaces/inkscape"
   width="60mm"
   height="20mm"
   viewBox="0 0 60 20"
   version="1.1"
   id="svg5"
   sodipodi:docname="wood_S.svg"
   inkscape:version="0.92.5 (2060ec1f9f, 2020-04-08)"
   inkscape:export-filename="wood_S.png"
   inkscape:export-xdpi="1200"
   inkscape:export-ydpi="1200">
  <metadata
     id="metadata14">
    <rdf:RDF>
      <cc:Work
         rdf:about="">
        <dc:format>image/svg+xml</dc:format>
        <dc:type
           rdf:resource="http://purl.org/dc/dcmitype/StillImage" />
      </cc:Work>
    </rdf:RDF>
  </metadata>
  <sodipodi:namedview
     id="namedview7"
     pagecolor="#ffffff"
     bordercolor="#666666"
     borderopacity="1.0"
     inkscape:pageshadow="2"
     inkscape:pageopacity="0.0"
     inkscape:pagecheckerboard="0"
     inkscape:document-units="mm"
     showgrid="false"
     width="600mm"
     inkscape:zoom="2.6426275"
     inkscape:cx="196.44975"
     inkscape:cy="-62.235279"
     inkscape:window-width="1920"
     inkscape:window-height="1163"
     inkscape:window-x="1280"
     inkscape:window-y="0"
     inkscape:window-maximized="1"
     inkscape:current-layer="layer1" />
  <defs
     id="defs2" />
  <g
     inkscape:label="Vrstva 1"
     inkscape:groupmode="layer"
     id="layer1">
    <path
       style="fill:none;stroke:#000000;stroke-width:0.465;stroke-linecap:butt;stroke-linejoin:miter;stroke-miterlimit:4;stroke-dasharray:none;stroke-opacity:1"
       d="m 4.5305062,15.767271 c 0.1249601,-0.07151 -0.5263972,0.233046 -0.3921291,0.18108 0.1362903,-0.05274 0.2538896,-0.125171 0.3921291,-0.18108 0.1900466,-0.07686 0.3873765,-0.134458 0.5792632,-0.206604 0.5516373,-0.207409 1.0905313,-0.481699 1.6291582,-0.719355 1.0777718,-0.47554 2.1679284,-0.932803 3.2583247,-1.378911 1.9545077,-0.799639 3.9520107,-1.486443 5.9091147,-2.280559 0.540088,-0.219146 1.066947,-0.469649 1.607112,-0.688543 1.347216,-0.54594 2.694059,-1.0935779 4.053478,-1.6083936 0.630795,-0.2388835 1.258459,-0.4872917 1.9054,-0.680286 1.283664,-0.3829404 2.586786,-0.7765878 3.916942,-0.9560847 0.09468,-0.012778 0.720333,-0.1010105 0.784607,-5.632e-4 0.117011,0.1828634 -0.394567,0.6223243 -0.477725,0.7169377 -1.055507,1.2009144 -2.423636,2.1563888 -3.808494,2.9349968 -0.774208,0.435283 -1.590431,0.781972 -2.376152,1.194312 -0.930892,0.488525 -1.826004,1.042068 -2.727428,1.581779 -0.781258,0.467763 -1.576829,0.916909 -2.344088,1.407324 -2.108183,1.347506 -4.175516,2.764906 -6.254519,4.156645"
       id="path143"
       inkscape:connector-curvature="0" />
    <path
       style="fill:none;stroke:#000000;stroke-width:0.465;stroke-linecap:butt;stroke-linejoin:miter;stroke-miterlimit:4;stroke-dasharray:none;stroke-opacity:1"
       d="M 3.5510179,11.331878 C 4.266998,10.896243 5.0230139,10.52605 5.7788846,10.16515 9.4116822,8.4306252 13.165619,6.9575996 16.915696,5.5019612 18.389866,4.929744 18.530788,4.8453638 20.686452,4.049002 22.576637,3.3507145 24.495457,2.7045813 26.3986,2.0398374"
       id="path145"
       inkscape:connector-curvature="0" />
    <path
       style="fill:none;stroke:#000000;stroke-width:0.465;stroke-linecap:butt;stroke-linejoin:miter;stroke-miterlimit:4;stroke-dasharray:none;stroke-opacity:1"
       d="m 25.545463,6.0112353 c 0.546675,-0.3239809 1.13195,-0.5924892 1.72183,-0.828939 1.486354,-0.5957938 3.049409,-1.0004505 4.579202,-1.4683122 2.531281,-0.7741507 5.06893,-1.535607 7.649145,-2.1320546 0.876735,-0.2026675 1.766675,-0.371996 2.654203,-0.5220351 0.105895,-0.017898 0.894515,-0.22219306 1.118393,-0.10470052 0.09027,0.0473757 -0.128832,0.21428172 -0.322632,0.37420052 -0.74508,0.6148159 -1.510944,1.2085004 -2.289641,1.7801112 -1.409661,1.0347738 -2.852839,2.0136112 -4.331553,2.9459929 -2.488073,1.5688166 -5.009132,3.0740805 -7.564355,4.5312915 -1.551884,0.885022 -3.135435,1.711552 -4.659179,2.646168 -2.225411,1.364997 -2.995322,1.906655 -5.276834,3.417388"
       id="path147"
       inkscape:connector-curvature="0" />
    <path
       style="fill:none;stroke:#000000;stroke-width:0.465;stroke-linecap:butt;stroke-linejoin:miter;stroke-miterlimit:4;stroke-dasharray:none;stroke-opacity:1"
       d="m 21.791472,19.382865 c 0.26071,-0.242448 0.123217,-0.141061 0.548522,-0.359785 1.759083,-0.904656 3.532596,-1.79462 5.308185,-2.665887 2.234435,-1.096419 4.500135,-2.13401 6.71436,-3.271298 2.650641,-1.361442 5.273647,-2.797456 7.816857,-4.3521064 1.305432,-0.798003 1.848887,-1.1654234 3.180515,-2.1213385 2.285724,-1.6706342 4.373397,-3.1953308 7.220901,-5.5440982"
       id="path149"
       inkscape:connector-curvature="0"
       sodipodi:nodetypes="ccssscc" />
    <path
       style="fill:none;stroke:#000000;stroke-width:0.465;stroke-linecap:butt;stroke-linejoin:miter;stroke-miterlimit:4;stroke-dasharray:none;stroke-opacity:1"
       d="m 35.15859,18.106638 c 0.227599,-0.157901 0.450238,-0.323198 0.682794,-0.473702 0.476484,-0.308368 0.981786,-0.569746 1.472629,-0.854709 2.302618,-1.336809 -1.191088,0.685219 2.287975,-1.31875 1.92797,-1.110527 3.850837,-2.229149 5.733196,-3.416323 2.004636,-1.264296 3.912934,-2.6749856 5.923418,-3.9327811 1.814238,-1.1350215 3.591675,-2.1069052 5.47591,-3.1129166"
       id="path151"
       inkscape:connector-curvature="0" />
    <path
       style="fill:none;stroke:#000000;stroke-width:0.465;stroke-linecap:butt;stroke-linejoin:miter;stroke-miterlimit:4;stroke-dasharray:none;stroke-opacity:1"
       d="m 42.951636,18.806037 c 0.217715,-0.0949 0.441452,-0.177029 0.653147,-0.284692 0.589974,-0.300049 1.1577,-0.642102 1.741765,-0.953494 1.586224,-0.845684 3.181738,-1.676284 4.758802,-2.538921 1.468864,-0.803455 2.923046,-1.632977 4.396085,-2.428799"
       id="path153"
       inkscape:connector-curvature="0" />
    <path
       style="fill:none;stroke:#000000;stroke-width:0.465;stroke-linecap:butt;stroke-linejoin:miter;stroke-miterlimit:4;stroke-dasharray:none;stroke-opacity:1"
       d="m 50.662575,18.713235 c 1.9952,-1.270539 4.012354,-2.506109 6.065191,-3.681653"
       id="path155"
       inkscape:connector-curvature="0" />
    <path
       style="fill:none;stroke:#000000;stroke-width:0.465;stroke-linecap:butt;stroke-linejoin:miter;stroke-miterlimit:4;stroke-dasharray:none;stroke-opacity:1"
       d="M 2.0895187,6.1527165 C 2.3289081,5.9976329 2.5597611,5.8285016 2.8076867,5.687466 4.2069786,4.8914618 5.6887905,4.2566131 7.1681147,3.6278881 9.548129,2.6163619 9.016767,2.8403656 11.095782,2.0051012"
       id="path157"
       inkscape:connector-curvature="0" />
  </g>
</svg>
